<svg width="32" height="32" viewBox="0 0 32 32" fill="none" xmlns="http://www.w3.org/2000/svg">
<g filter="url(#filter0_i_1007_2)">
<path d="M16.5742 11.0762H28.9642C29.7082 11.0762 30.3122 11.6802 30.3122 12.4242V28.0002H16.5742V11.0762Z" fill="url(#paint0_linear_1007_2)"/>
<path d="M16.5742 11.0762H28.9642C29.7082 11.0762 30.3122 11.6802 30.3122 12.4242V28.0002H16.5742V11.0762Z" fill="url(#paint1_linear_1007_2)"/>
<path d="M16.5742 11.0762H28.9642C29.7082 11.0762 30.3122 11.6802 30.3122 12.4242V28.0002H16.5742V11.0762Z" fill="url(#paint2_radial_1007_2)"/>
</g>
<path d="M15.8164 27.5957H30.3134V29.2807H29.9764L29.6394 29.6187H15.8164V27.5957Z" fill="url(#paint3_linear_1007_2)"/>
<path d="M15.8164 27.5957H30.3134V29.2807H29.9764L29.6394 29.6187H15.8164V27.5957Z" fill="url(#paint4_linear_1007_2)"/>
<path d="M16.4876 11.0762C16.3548 11.076 16.2232 11.1021 16.1005 11.1529C15.9778 11.2036 15.8663 11.2781 15.7724 11.372C15.6785 11.4659 15.604 11.5774 15.5533 11.7001C15.5025 11.8228 15.4764 11.9544 15.4766 12.0872V28.6072H16.1506C16.1506 28.2352 16.4526 27.9332 16.8246 27.9332H17.4996V11.0762H16.4876Z" fill="url(#paint5_linear_1007_2)"/>
<path d="M16.4876 11.0762C16.3548 11.076 16.2232 11.1021 16.1005 11.1529C15.9778 11.2036 15.8663 11.2781 15.7724 11.372C15.6785 11.4659 15.604 11.5774 15.5533 11.7001C15.5025 11.8228 15.4764 11.9544 15.4766 12.0872V28.6072H16.1506C16.1506 28.2352 16.4526 27.9332 16.8246 27.9332H17.4996V11.0762H16.4876Z" fill="url(#paint6_radial_1007_2)"/>
<g filter="url(#filter1_i_1007_2)">
<path d="M16.4876 27.2588C16.3548 27.2587 16.2232 27.2847 16.1005 27.3355C15.9778 27.3862 15.8663 27.4607 15.7724 27.5546C15.6785 27.6485 15.604 27.76 15.5533 27.8827C15.5025 28.0055 15.4764 28.137 15.4766 28.2698V28.9438C15.4766 29.5028 15.9296 29.9558 16.4876 29.9558H29.5746C30.0146 29.9558 30.3106 29.7298 30.3106 29.2808H16.8246C16.6458 29.2808 16.4744 29.2098 16.348 29.0834C16.2216 28.957 16.1506 28.7855 16.1506 28.6068C16.1506 28.428 16.2216 28.2566 16.348 28.1302C16.4744 28.0038 16.6458 27.9328 16.8246 27.9328H30.3106V27.2588H16.4876Z" fill="url(#paint7_linear_1007_2)"/>
</g>
<path d="M10.4375 7.03613H21.9005C22.6455 7.03613 23.2495 7.64013 23.2495 8.38513V23.2191H10.4375V7.03613Z" fill="url(#paint8_linear_1007_2)"/>
<path d="M10.4375 7.03613H21.9005C22.6455 7.03613 23.2495 7.64013 23.2495 8.38513V23.2191H10.4375V7.03613Z" fill="url(#paint9_linear_1007_2)"/>
<path d="M10.4375 7.03613H21.9005C22.6455 7.03613 23.2495 7.64013 23.2495 8.38513V23.2191H10.4375V7.03613Z" fill="url(#paint10_radial_1007_2)"/>
<path d="M8.75 23.5557H23.249V25.2417H22.912L22.574 25.5787H8.75V23.5557Z" fill="url(#paint11_linear_1007_2)"/>
<path d="M8.75 23.5557H23.249V25.2417H22.912L22.574 25.5787H8.75V23.5557Z" fill="url(#paint12_linear_1007_2)"/>
<path d="M9.42606 7.03613C8.86706 7.03613 8.41406 7.48913 8.41406 8.04813V24.5681H9.08906C9.08906 24.1951 9.39006 23.8931 9.76306 23.8931H10.4371V7.03613H9.42606Z" fill="url(#paint13_linear_1007_2)"/>
<path d="M9.42606 7.03613C8.86706 7.03613 8.41406 7.48913 8.41406 8.04813V24.5681H9.08906C9.08906 24.1951 9.39006 23.8931 9.76306 23.8931H10.4371V7.03613H9.42606Z" fill="url(#paint14_radial_1007_2)"/>
<path d="M9.42606 7.03613C8.86706 7.03613 8.41406 7.48913 8.41406 8.04813V24.5681H9.08906C9.08906 24.1951 9.39006 23.8931 9.76306 23.8931H10.4371V7.03613H9.42606Z" fill="url(#paint15_radial_1007_2)"/>
<g filter="url(#filter2_i_1007_2)">
<path d="M9.42606 23.2197C9.29326 23.2195 9.16171 23.2454 9.03894 23.2961C8.91617 23.3467 8.80459 23.4211 8.71059 23.5149C8.61659 23.6087 8.54202 23.7201 8.49114 23.8428C8.44025 23.9654 8.41406 24.0969 8.41406 24.2297V24.9048C8.41406 25.4628 8.86706 25.9158 9.42606 25.9158H22.5121C22.9521 25.9158 23.2491 25.6908 23.2491 25.2418H9.76306C9.58417 25.2418 9.41261 25.1707 9.28612 25.0442C9.15963 24.9177 9.08856 24.7461 9.08856 24.5672C9.08856 24.3884 9.15963 24.2168 9.28612 24.0903C9.41261 23.9638 9.58417 23.8927 9.76306 23.8927H23.2491V23.2188H9.42606V23.2197Z" fill="url(#paint16_linear_1007_2)"/>
</g>
<g filter="url(#filter3_i_1007_2)">
<path d="M3.28125 4H15.6682C16.4122 4 17.0163 4.604 17.0163 5.348V20.178H3.28125V4Z" fill="url(#paint17_linear_1007_2)"/>
<path d="M3.28125 4H15.6682C16.4122 4 17.0163 4.604 17.0163 5.348V20.178H3.28125V4Z" fill="url(#paint18_linear_1007_2)"/>
</g>
<path d="M2.52444 20.5156H17.0174V22.1996H16.6804L16.3434 22.5366H2.52344V20.5146L2.52444 20.5156Z" fill="url(#paint19_linear_1007_2)"/>
<path d="M2.52444 20.5156H17.0174V22.1996H16.6804L16.3434 22.5366H2.52344V20.5146L2.52444 20.5156Z" fill="url(#paint20_linear_1007_2)"/>
<path d="M3.1985 4C3.0657 3.99987 2.93417 4.02593 2.81145 4.07669C2.68873 4.12745 2.57723 4.20192 2.48332 4.29582C2.38942 4.38973 2.31495 4.50123 2.26419 4.62395C2.21343 4.74667 2.18737 4.8782 2.1875 5.011V21.527H2.8615C2.8615 21.154 3.1635 20.853 3.5355 20.853H4.2095V4H3.1985Z" fill="url(#paint21_linear_1007_2)"/>
<g filter="url(#filter4_i_1007_2)">
<path d="M3.1985 20.1787C3.06578 20.1786 2.93434 20.2046 2.81168 20.2553C2.68903 20.306 2.57757 20.3804 2.48368 20.4742C2.38978 20.568 2.3153 20.6794 2.26448 20.802C2.21366 20.9246 2.1875 21.056 2.1875 21.1887V21.8637C2.18737 21.9964 2.2134 22.1279 2.26409 22.2505C2.31479 22.3732 2.38917 22.4846 2.48297 22.5785C2.57677 22.6724 2.68816 22.7469 2.81076 22.7977C2.93336 22.8486 3.06478 22.8747 3.1975 22.8747H16.2815C16.7215 22.8747 17.0175 22.6487 17.0175 22.2007H3.5355C3.35674 22.2007 3.18531 22.1297 3.05891 22.0033C2.93251 21.8769 2.8615 21.7055 2.8615 21.5267C2.8615 21.348 2.93251 21.1765 3.05891 21.0501C3.18531 20.9237 3.35674 20.8527 3.5355 20.8527H17.0175V20.1787H3.1975H3.1985Z" fill="url(#paint22_linear_1007_2)"/>
</g>
<defs>
<filter id="filter0_i_1007_2" x="16.5742" y="11.0762" width="13.7383" height="17.0238" filterUnits="userSpaceOnUse" color-interpolation-filters="sRGB">
<feFlood flood-opacity="0" result="BackgroundImageFix"/>
<feBlend mode="normal" in="SourceGraphic" in2="BackgroundImageFix" result="shape"/>
<feColorMatrix in="SourceAlpha" type="matrix" values="0 0 0 0 0 0 0 0 0 0 0 0 0 0 0 0 0 0 127 0" result="hardAlpha"/>
<feOffset dy="0.1"/>
<feGaussianBlur stdDeviation="0.25"/>
<feComposite in2="hardAlpha" operator="arithmetic" k2="-1" k3="1"/>
<feColorMatrix type="matrix" values="0 0 0 0 0.32549 0 0 0 0 0.807843 0 0 0 0 0.933333 0 0 0 1 0"/>
<feBlend mode="normal" in2="shape" result="effect1_innerShadow_1007_2"/>
</filter>
<filter id="filter1_i_1007_2" x="15.4766" y="27.2588" width="14.8359" height="2.79727" filterUnits="userSpaceOnUse" color-interpolation-filters="sRGB">
<feFlood flood-opacity="0" result="BackgroundImageFix"/>
<feBlend mode="normal" in="SourceGraphic" in2="BackgroundImageFix" result="shape"/>
<feColorMatrix in="SourceAlpha" type="matrix" values="0 0 0 0 0 0 0 0 0 0 0 0 0 0 0 0 0 0 127 0" result="hardAlpha"/>
<feOffset dy="0.1"/>
<feGaussianBlur stdDeviation="0.15"/>
<feComposite in2="hardAlpha" operator="arithmetic" k2="-1" k3="1"/>
<feColorMatrix type="matrix" values="0 0 0 0 0.168627 0 0 0 0 0.388235 0 0 0 0 0.74902 0 0 0 1 0"/>
<feBlend mode="normal" in2="shape" result="effect1_innerShadow_1007_2"/>
</filter>
<filter id="filter2_i_1007_2" x="8.41406" y="23.2188" width="14.8359" height="2.79727" filterUnits="userSpaceOnUse" color-interpolation-filters="sRGB">
<feFlood flood-opacity="0" result="BackgroundImageFix"/>
<feBlend mode="normal" in="SourceGraphic" in2="BackgroundImageFix" result="shape"/>
<feColorMatrix in="SourceAlpha" type="matrix" values="0 0 0 0 0 0 0 0 0 0 0 0 0 0 0 0 0 0 127 0" result="hardAlpha"/>
<feOffset dy="0.1"/>
<feGaussianBlur stdDeviation="0.15"/>
<feComposite in2="hardAlpha" operator="arithmetic" k2="-1" k3="1"/>
<feColorMatrix type="matrix" values="0 0 0 0 0.694118 0 0 0 0 0.192157 0 0 0 0 0.360784 0 0 0 1 0"/>
<feBlend mode="normal" in2="shape" result="effect1_innerShadow_1007_2"/>
</filter>
<filter id="filter3_i_1007_2" x="3.28125" y="4" width="13.7344" height="16.2777" filterUnits="userSpaceOnUse" color-interpolation-filters="sRGB">
<feFlood flood-opacity="0" result="BackgroundImageFix"/>
<feBlend mode="normal" in="SourceGraphic" in2="BackgroundImageFix" result="shape"/>
<feColorMatrix in="SourceAlpha" type="matrix" values="0 0 0 0 0 0 0 0 0 0 0 0 0 0 0 0 0 0 127 0" result="hardAlpha"/>
<feOffset dy="0.1"/>
<feGaussianBlur stdDeviation="0.25"/>
<feComposite in2="hardAlpha" operator="arithmetic" k2="-1" k3="1"/>
<feColorMatrix type="matrix" values="0 0 0 0 0.623529 0 0 0 0 0.858824 0 0 0 0 0.290196 0 0 0 1 0"/>
<feBlend mode="normal" in2="shape" result="effect1_innerShadow_1007_2"/>
</filter>
<filter id="filter4_i_1007_2" x="2.1875" y="20.1787" width="14.8281" height="2.79629" filterUnits="userSpaceOnUse" color-interpolation-filters="sRGB">
<feFlood flood-opacity="0" result="BackgroundImageFix"/>
<feBlend mode="normal" in="SourceGraphic" in2="BackgroundImageFix" result="shape"/>
<feColorMatrix in="SourceAlpha" type="matrix" values="0 0 0 0 0 0 0 0 0 0 0 0 0 0 0 0 0 0 127 0" result="hardAlpha"/>
<feOffset dy="0.1"/>
<feGaussianBlur stdDeviation="0.15"/>
<feComposite in2="hardAlpha" operator="arithmetic" k2="-1" k3="1"/>
<feColorMatrix type="matrix" values="0 0 0 0 0.113725 0 0 0 0 0.435294 0 0 0 0 0.439216 0 0 0 1 0"/>
<feBlend mode="normal" in2="shape" result="effect1_innerShadow_1007_2"/>
</filter>
<linearGradient id="paint0_linear_1007_2" x1="23.9062" y1="11.0762" x2="23.9062" y2="27.2592" gradientUnits="userSpaceOnUse">
<stop stop-color="#56D1F3"/>
<stop offset="1" stop-color="#39ADF1"/>
</linearGradient>
<linearGradient id="paint1_linear_1007_2" x1="30.4172" y1="13.4572" x2="29.0902" y2="13.6462" gradientUnits="userSpaceOnUse">
<stop offset="0.014" stop-color="#7FECFF"/>
<stop offset="1" stop-color="#60DEFF" stop-opacity="0"/>
</linearGradient>
<radialGradient id="paint2_radial_1007_2" cx="0" cy="0" r="1" gradientUnits="userSpaceOnUse" gradientTransform="translate(17.4152 27.2592) scale(6.0275 5.11709)">
<stop stop-color="#2E7CD5"/>
<stop offset="1" stop-color="#2E7CD5" stop-opacity="0"/>
</radialGradient>
<linearGradient id="paint3_linear_1007_2" x1="16.6404" y1="28.8867" x2="30.1914" y2="28.8867" gradientUnits="userSpaceOnUse">
<stop stop-color="#D5BCEB"/>
<stop offset="1" stop-color="#E3D3F2"/>
</linearGradient>
<linearGradient id="paint4_linear_1007_2" x1="23.0654" y1="27.7557" x2="23.0654" y2="28.7127" gradientUnits="userSpaceOnUse">
<stop stop-color="#9F84AE"/>
<stop offset="1" stop-color="#C5B1D6" stop-opacity="0"/>
</linearGradient>
<linearGradient id="paint5_linear_1007_2" x1="15.6146" y1="21.0132" x2="17.2046" y2="21.0212" gradientUnits="userSpaceOnUse">
<stop stop-color="#44A3D2"/>
<stop offset="1" stop-color="#3C8FCC"/>
</linearGradient>
<radialGradient id="paint6_radial_1007_2" cx="0" cy="0" r="1" gradientUnits="userSpaceOnUse" gradientTransform="translate(17.4996 25.6252) rotate(90) scale(4.21875 2.46036)">
<stop stop-color="#3163AE"/>
<stop offset="1" stop-color="#3163AE" stop-opacity="0"/>
</radialGradient>
<linearGradient id="paint7_linear_1007_2" x1="16.4416" y1="29.2568" x2="30.3106" y2="29.2348" gradientUnits="userSpaceOnUse">
<stop stop-color="#3769C5"/>
<stop offset="1" stop-color="#3666C3"/>
</linearGradient>
<linearGradient id="paint8_linear_1007_2" x1="16.8435" y1="7.03613" x2="16.8435" y2="23.2191" gradientUnits="userSpaceOnUse">
<stop stop-color="#E13074"/>
<stop offset="1" stop-color="#E0334C"/>
</linearGradient>
<linearGradient id="paint9_linear_1007_2" x1="24.3885" y1="9.31713" x2="22.5615" y2="9.38213" gradientUnits="userSpaceOnUse">
<stop offset="0.409" stop-color="#F76594"/>
<stop offset="1" stop-color="#FA6295" stop-opacity="0"/>
</linearGradient>
<radialGradient id="paint10_radial_1007_2" cx="0" cy="0" r="1" gradientUnits="userSpaceOnUse" gradientTransform="translate(11.0085 22.8131) scale(6.75 5.4622)">
<stop stop-color="#B21940"/>
<stop offset="1" stop-color="#B21940" stop-opacity="0"/>
</radialGradient>
<linearGradient id="paint11_linear_1007_2" x1="9.574" y1="24.8477" x2="23.126" y2="24.8477" gradientUnits="userSpaceOnUse">
<stop stop-color="#D5BCEB"/>
<stop offset="1" stop-color="#E3D3F2"/>
</linearGradient>
<linearGradient id="paint12_linear_1007_2" x1="15.999" y1="23.7167" x2="15.999" y2="24.6737" gradientUnits="userSpaceOnUse">
<stop stop-color="#9F84AE"/>
<stop offset="1" stop-color="#C5B1D6" stop-opacity="0"/>
</linearGradient>
<linearGradient id="paint13_linear_1007_2" x1="8.55306" y1="16.9741" x2="10.4371" y2="16.9741" gradientUnits="userSpaceOnUse">
<stop stop-color="#9A3E4F"/>
<stop offset="1" stop-color="#AA2C4D"/>
</linearGradient>
<radialGradient id="paint14_radial_1007_2" cx="0" cy="0" r="1" gradientUnits="userSpaceOnUse" gradientTransform="translate(8.68306 23.6731) rotate(-90) scale(4.4809 0.78956)">
<stop stop-color="#9B3F51"/>
<stop offset="1" stop-color="#9B3F51" stop-opacity="0"/>
</radialGradient>
<radialGradient id="paint15_radial_1007_2" cx="0" cy="0" r="1" gradientUnits="userSpaceOnUse" gradientTransform="translate(10.4341 22.3451) rotate(90) scale(3.28125 1.86661)">
<stop offset="0.267" stop-color="#8F163A"/>
<stop offset="1" stop-color="#8F163A" stop-opacity="0"/>
</radialGradient>
<linearGradient id="paint16_linear_1007_2" x1="9.37906" y1="25.2178" x2="23.2491" y2="25.1958" gradientUnits="userSpaceOnUse">
<stop stop-color="#AB1F5C"/>
<stop offset="1" stop-color="#A51E5A"/>
</linearGradient>
<linearGradient id="paint17_linear_1007_2" x1="10.6123" y1="4" x2="10.6123" y2="20.179" gradientUnits="userSpaceOnUse">
<stop stop-color="#A6E051"/>
<stop offset="1" stop-color="#74D891"/>
</linearGradient>
<linearGradient id="paint18_linear_1007_2" x1="17.1213" y1="6.38" x2="15.7943" y2="6.57" gradientUnits="userSpaceOnUse">
<stop offset="0.014" stop-color="#C0FA7C"/>
<stop offset="1" stop-color="#B0ED5B" stop-opacity="0"/>
</linearGradient>
<linearGradient id="paint19_linear_1007_2" x1="3.34744" y1="21.8066" x2="16.8954" y2="21.8066" gradientUnits="userSpaceOnUse">
<stop stop-color="#D5BCEB"/>
<stop offset="1" stop-color="#E3D3F2"/>
</linearGradient>
<linearGradient id="paint20_linear_1007_2" x1="9.77044" y1="20.6756" x2="9.77044" y2="21.6326" gradientUnits="userSpaceOnUse">
<stop stop-color="#9F84AE"/>
<stop offset="1" stop-color="#C5B1D6" stop-opacity="0"/>
</linearGradient>
<linearGradient id="paint21_linear_1007_2" x1="2.3255" y1="13.935" x2="3.9145" y2="13.943" gradientUnits="userSpaceOnUse">
<stop stop-color="#63B33B"/>
<stop offset="1" stop-color="#429B5B"/>
</linearGradient>
<linearGradient id="paint22_linear_1007_2" x1="3.1515" y1="22.1767" x2="17.0175" y2="22.1547" gradientUnits="userSpaceOnUse">
<stop stop-color="#2E7671"/>
<stop offset="1" stop-color="#2E7172"/>
</linearGradient>
</defs>
</svg>
